<svg width="20" height="20" viewBox="0 0 20 20" fill="none" xmlns="http://www.w3.org/2000/svg">
<circle cx="10" cy="10" r="10" fill="white"/>
<path fill-rule="evenodd" clip-rule="evenodd" d="M9.49999 9.56521V7.16666C9.49999 6.92653 9.72385 6.73187 9.99999 6.73187C10.2761 6.73187 10.5 6.92653 10.5 7.16666V9.56521H12.8985C13.1387 9.56521 13.3333 9.78906 13.3333 10.0652C13.3333 10.3413 13.1387 10.5652 12.8985 10.5652H10.5V12.9638C10.5 13.2039 10.2761 13.3985 9.99999 13.3985C9.72385 13.3985 9.49999 13.2039 9.49999 12.9638V10.5652H7.10144C6.86132 10.5652 6.66666 10.3413 6.66666 10.0652C6.66666 9.78906 6.86132 9.56521 7.10144 9.56521H9.49999Z" fill="#0091FF"/>
<path d="M9.49999 9.56521V10.0652H9.99999V9.56521H9.49999ZM10.5 9.56521H9.99999V10.0652H10.5V9.56521ZM10.5 10.5652V10.0652H9.99999V10.5652H10.5ZM9.49999 10.5652H9.99999V10.0652H9.49999V10.5652ZM8.99999 7.16666V9.56521H9.99999V7.16666H8.99999ZM9.99999 6.23187C9.51561 6.23187 8.99999 6.58706 8.99999 7.16666H9.99999C9.99999 7.18563 9.99532 7.20296 9.98891 7.21612C9.98284 7.2286 9.9766 7.23472 9.97453 7.23652C9.97112 7.23948 9.9786 7.23187 9.99999 7.23187V6.23187ZM11 7.16666C11 6.58706 10.4844 6.23187 9.99999 6.23187V7.23187C10.0214 7.23187 10.0289 7.23948 10.0255 7.23652C10.0234 7.23472 10.0171 7.2286 10.0111 7.21612C10.0047 7.20296 9.99999 7.18563 9.99999 7.16666H11ZM11 9.56521V7.16666H9.99999V9.56521H11ZM12.8985 9.06521H10.5V10.0652H12.8985V9.06521ZM13.8333 10.0652C13.8333 9.58083 13.4781 9.06521 12.8985 9.06521V10.0652C12.8796 10.0652 12.8622 10.0605 12.8491 10.0541C12.8366 10.0481 12.8305 10.0418 12.8287 10.0397C12.8257 10.0363 12.8333 10.0438 12.8333 10.0652H13.8333ZM12.8985 11.0652C13.4781 11.0652 13.8333 10.5496 13.8333 10.0652H12.8333C12.8333 10.0866 12.8257 10.0941 12.8287 10.0907C12.8305 10.0886 12.8366 10.0824 12.8491 10.0763C12.8622 10.0699 12.8796 10.0652 12.8985 10.0652V11.0652ZM10.5 11.0652H12.8985V10.0652H10.5V11.0652ZM11 12.9638V10.5652H9.99999V12.9638H11ZM9.99999 13.8985C10.4844 13.8985 11 13.5434 11 12.9638H9.99999C9.99999 12.9448 10.0047 12.9275 10.0111 12.9143C10.0171 12.9018 10.0234 12.8957 10.0255 12.8939C10.0289 12.8909 10.0214 12.8985 9.99999 12.8985V13.8985ZM8.99999 12.9638C8.99999 13.5434 9.51561 13.8985 9.99999 13.8985V12.8985C9.9786 12.8985 9.97112 12.8909 9.97453 12.8939C9.9766 12.8957 9.98284 12.9018 9.98891 12.9143C9.99532 12.9275 9.99999 12.9448 9.99999 12.9638H8.99999ZM8.99999 10.5652V12.9638H9.99999V10.5652H8.99999ZM7.10144 11.0652H9.49999V10.0652H7.10144V11.0652ZM6.16666 10.0652C6.16666 10.5496 6.52184 11.0652 7.10144 11.0652V10.0652C7.12041 10.0652 7.13774 10.0699 7.15091 10.0763C7.16338 10.0824 7.1695 10.0886 7.1713 10.0907C7.17427 10.0941 7.16666 10.0866 7.16666 10.0652H6.16666ZM7.10144 9.06521C6.52184 9.06521 6.16666 9.58083 6.16666 10.0652H7.16666C7.16666 10.0438 7.17427 10.0363 7.1713 10.0397C7.1695 10.0418 7.16338 10.0481 7.15091 10.0541C7.13774 10.0605 7.12041 10.0652 7.10144 10.0652V9.06521ZM9.49999 9.06521H7.10144V10.0652H9.49999V9.06521Z" fill="#0091FF"/>
</svg>
